<svg id="Layer_1" data-name="Layer 1" xmlns="http://www.w3.org/2000/svg" viewBox="0 0 28.87 27.39"><defs><style>.cls-1{fill:#231f20;}</style></defs><path class="cls-1" d="M1.51,3.34v26a.63.63,0,0,0,1.25,0v-26a.63.63,0,0,0-1.25,0Z" transform="translate(-1.51 -2.57)"/><path class="cls-1" d="M3.57,4.07h6.88a.63.63,0,0,0,0-1.25H3.57a.63.63,0,0,0,0,1.25Z" transform="translate(-1.51 -2.57)"/><path class="cls-1" d="M9.72,4.83V9.54a.63.63,0,0,0,1.25,0V4.83a.63.63,0,0,0-1.25,0Z" transform="translate(-1.51 -2.57)"/><path class="cls-1" d="M3.62,11.65h6.86a.63.63,0,0,0,0-1.25h-.13a.63.63,0,0,0,0,1.25h.13a.63.63,0,0,0,0-1.25H3.62a.63.63,0,0,0,0,1.25Z" transform="translate(-1.51 -2.57)"/><path class="cls-1" d="M11.15,13.14V28.93a.63.63,0,0,0,1.25,0V13.14a.63.63,0,0,0-1.25,0Z" transform="translate(-1.51 -2.57)"/><path class="cls-1" d="M17.62,13.14V28.93a.63.63,0,0,0,1.25,0V13.14a.63.63,0,0,0-1.25,0Z" transform="translate(-1.51 -2.57)"/><path class="cls-1" d="M13.15,13.83h3.7a.63.63,0,1,0,0-1.25h-3.7a.63.63,0,0,0-.63.62.65.65,0,0,0,.63.63Z" transform="translate(-1.51 -2.57)"/><path class="cls-1" d="M13.16,18h3.7a.62.62,0,0,0,.62-.62.63.63,0,0,0-.62-.63h-3.7a.63.63,0,1,0,0,1.25Z" transform="translate(-1.51 -2.57)"/><path class="cls-1" d="M23.12,3.17v8.49a.63.63,0,0,0,1.25,0V3.17a.63.63,0,0,0-1.25,0Z" transform="translate(-1.51 -2.57)"/><path class="cls-1" d="M25.9,14.69V28.42a.63.63,0,0,0,1.25,0V14.69a.63.63,0,0,0-1.25,0Z" transform="translate(-1.51 -2.57)"/><path class="cls-1" d="M28.3,23.26l.92-.93a.61.61,0,0,0,.19-.44.63.63,0,0,0-.19-.44.59.59,0,0,0-.44-.18.62.62,0,0,0-.44.18l-.92.93a.61.61,0,0,0-.19.44.63.63,0,0,0,.19.44.59.59,0,0,0,.44.18.67.67,0,0,0,.44-.18Z" transform="translate(-1.51 -2.57)"/><path class="cls-1" d="M29.14,22.82v5.71a.63.63,0,0,0,1.25,0V22.82a.63.63,0,0,0-1.25,0Z" transform="translate(-1.51 -2.57)"/><path class="cls-1" d="M22.25,3.52h-1.8a.63.63,0,0,0,0,1.25h1.8a.63.63,0,0,0,.63-.62.65.65,0,0,0-.63-.63Z" transform="translate(-1.51 -2.57)"/><path class="cls-1" d="M27,3.52h-1.8a.63.63,0,0,0-.62.63.62.62,0,0,0,.62.62H27a.63.63,0,0,0,.63-.62A.65.65,0,0,0,27,3.52Z" transform="translate(-1.51 -2.57)"/></svg>